<?xml version="1.0" standalone="no"?>
<!DOCTYPE svg PUBLIC "-//W3C//DTD SVG 20010904//EN"
 "http://www.w3.org/TR/2001/REC-SVG-20010904/DTD/svg10.dtd">
<svg version="1.0" xmlns="http://www.w3.org/2000/svg"
 width="700.000000pt" height="700.000000pt" viewBox="0 0 700.000000 700.000000"
 preserveAspectRatio="xMidYMid meet">
<metadata>
Created by potrace 1.11, written by Peter Selinger 2001-2013
</metadata>
<g transform="translate(0.000000,700.000000) scale(0.100000,-0.100000)"
fill="#000000" stroke="none">
<path d="M3327 6944 c-1 -1 -69 -5 -152 -8 -82 -4 -166 -8 -185 -10 -19 -2
-71 -7 -115 -11 -44 -4 -87 -8 -95 -10 -8 -1 -42 -6 -75 -9 -81 -10 -120 -15
-185 -26 -30 -5 -71 -12 -90 -15 -383 -63 -840 -210 -1155 -372 -343 -176
-620 -390 -771 -595 -90 -122 -111 -186 -108 -323 3 -155 14 -408 19 -460 3
-27 9 -104 15 -170 10 -114 12 -137 24 -230 3 -22 8 -62 11 -90 3 -27 10 -72
15 -100 5 -27 11 -68 14 -90 7 -49 11 -71 37 -204 12 -57 23 -116 26 -130 7
-41 79 -328 103 -411 12 -41 27 -95 35 -120 25 -89 123 -374 145 -425 5 -11
34 -83 66 -160 133 -328 360 -757 544 -1030 101 -150 271 -387 290 -405 3 -3
23 -27 44 -55 22 -27 45 -54 51 -60 6 -5 16 -17 21 -26 9 -17 96 -117 194
-223 80 -87 294 -301 375 -375 151 -137 419 -352 530 -424 22 -15 58 -39 80
-55 162 -114 429 -252 515 -265 92 -15 405 157 715 392 55 42 102 78 105 81 3
3 30 25 60 50 127 103 221 191 385 355 183 184 213 217 385 421 23 27 137 175
172 223 47 63 248 360 248 365 0 2 17 31 38 63 150 228 377 687 492 994 17 46
40 104 49 129 58 145 162 497 216 730 35 150 57 256 71 340 3 14 7 36 9 50 3
14 8 43 10 65 3 22 7 47 10 55 2 8 7 38 10 65 3 28 7 61 10 75 7 39 12 83 31
255 3 32 15 166 19 225 16 204 22 546 11 605 -18 98 -127 256 -281 410 -408
409 -1033 707 -1785 850 -13 3 -42 7 -65 10 -22 3 -47 8 -55 10 -25 7 -302 41
-400 50 -159 13 -673 28 -683 19z"/>
</g>
</svg>
